<svg width="512" height="512" viewBox="0 0 512 512" fill="none" xmlns="http://www.w3.org/2000/svg">
<circle cx="256" cy="256" r="256" fill="black"/>
<path d="M236.218 163H80.1768C77.9339 163 75.989 163.784 74.3423 165.351C72.7808 167.004 72 168.942 72 171.165C72 173.416 72.7808 175.326 74.3423 176.893C75.989 178.432 77.9339 179.202 80.1768 179.202H153.257V340.835C153.257 343.058 154.081 344.996 155.727 346.649C157.261 348.216 159.149 349 161.392 349C163.634 349 165.579 348.216 167.226 346.649C168.759 344.996 169.526 343.058 169.526 340.835V179.202H236.218C238.461 179.202 240.349 178.432 241.882 176.893C243.529 175.326 244.352 173.416 244.352 171.165C244.352 168.942 243.529 167.004 241.882 165.351C240.349 163.784 238.461 163 236.218 163ZM379.866 349H275.825C273.582 349 271.637 348.216 269.99 346.649C268.429 344.996 267.648 343.058 267.648 340.835C267.648 338.584 268.429 336.674 269.99 335.107C271.637 333.454 273.582 332.627 275.825 332.627H379.866C391.904 332.627 402.239 328.338 410.87 319.76C419.416 311.096 423.689 300.722 423.689 288.639V223.361C423.689 211.164 419.416 200.79 410.87 192.24C402.239 183.548 391.904 179.202 379.866 179.202H275.825C273.582 179.202 271.637 178.432 269.99 176.893C268.429 175.326 267.648 173.416 267.648 171.165C267.648 168.942 268.429 167.004 269.99 165.351C271.637 163.784 273.582 163 275.825 163H379.866C396.475 163 410.643 168.885 422.369 180.655C434.123 192.454 440 206.689 440 223.361V288.639C440 305.311 434.123 319.532 422.369 331.302C410.643 343.101 396.475 349 379.866 349Z" fill="white"/>
</svg>
